<?xml version="1.0" encoding="UTF-8"?>
<svg id="Layer_2" data-name="Layer 2" xmlns="http://www.w3.org/2000/svg" viewBox="0 0 403.28 67.27">
  <defs>
    <style>
      .cls-1 {
        fill: #3a7036;
      }

      .cls-2 {
        fill: #1d3c1c;
      }
    </style>
  </defs>
  <g id="Layer_1-2" data-name="Layer 1">
    <g>
      <path class="cls-2" d="M240.45,49.54c5.41,5.36,8.54-7.86,18.7-9.14-2.92,3.08-6.01,6.14-7.1,10.72,10.49-6.39,5.19-2.98,13.81-5.57,1.98-.59,4.09-1.05,5.56-1.15l-6.8,6.35,8.45-1.77-2.94,2.88c20.98,1.94,41.6,2.65,62.18,5.96l70.98,9.43c-2.62.56-128.39-9.36-128.39-9.36l-73.03-1.03c-6.83-16.68-1.58-21.82-9.03-40.3-2.61-6.48-6.42-11.64-11.6-16.56,14.83,5.02,21.45,20.95,24.87,35.29,5.36-10.91,12.72-25.03,25.74-27.94-7.33,6.87-12.55,14.32-15.51,23.65-1.54,4.84-3.06,9.37-2.84,14.44l4.74-8.34c3.33-5.85,7.82-11.37,14.43-13.81-5.56,7.58-8.9,15.57-9.57,24.64,3.66-5,6.12-10.92,12.17-13.81-2.19,4.63-4.25,8.47-4.45,13.03,7.29-7.63,15.07-15.26,26.13-16.18-6.79,5.04-13.26,10.4-16.48,18.55Z"/>
      <path class="cls-1" d="M145.57,45.34c5.81-.95,13.35,7.73,11.64,1.77,2.23,1.02,4.47,2.31,7.4,4.03-1.16-4.09-3.57-7.22-6.4-10.92,9.21,1.82,12.04,13.17,18.32,9.82-3.9-9.73-9.36-12.92-16.42-19.1,12.41,1.33,20.18,10.18,27.06,18.99-.57-17.6-3.78-19.81-11.89-33.36,14.11,8.42,21.06,25.21,24.29,40.21l-65.62,1.67-40.51,1.56-10.18.18c-2.5.04-80.7,6.51-83.27,6.3,19.19-3.46,114.37-11.48,134.11-13.07l13.34-1.07c2.89-.23,5.44,1.02,7.77,2.48.12-.51-.44-2.45-1.07-2.93l-8.57-6.55Z"/>
    </g>
  </g>
</svg>