<?xml version="1.0" encoding="UTF-8"?>
<svg id="Layer_2" data-name="Layer 2" xmlns="http://www.w3.org/2000/svg" viewBox="0 0 522.86 118.74">
  <defs>
    <style>
      .cls-1 {
        fill: #3a7036;
      }

      .cls-2 {
        fill: #1c3c1c;
      }

      .cls-3 {
        fill: #1d3c1c;
      }
    </style>
  </defs>
  <g id="Layer_1-2" data-name="Layer 1">
    <g>
      <g>
        <path class="cls-2" d="M0,0h61.09c-.02,7.83-.04,15.67-.06,23.5-.45.01-.89.03-1.34.04-4.4-5.78-11.36-8.53-18.86-8.38-.09,0-.18,0-.27,0-.03,18.83-.07,37.67-.1,56.5-.02,9.23,1.71,12.83,4.11,15.06,0,.42,0,.84,0,1.26-9.4,1.11-18.79,2.28-28.17,3.53v-1.31c2.41-2.93,4.01-7.02,4.02-16.51.02-19.37.04-38.74.06-58.1-.09,0-.18,0-.27,0-7.5.16-14.46,3.34-18.88,9.93-.45.02-.89.03-1.34.05V0Z"/>
        <path class="cls-2" d="M94.33,82.81c-9.42.85-18.83,1.78-28.24,2.77,0-.41,0-.82,0-1.22,2.41-2.7,4.03-6.5,4.05-15.38.05-17.6.09-35.2.14-52.8.02-8.88-1.58-12.51-3.98-14.96,0-.41,0-.81,0-1.22h28.27c0,.39,0,.79,0,1.18-2.42,2.37-4.17,5.94-4.2,14.62-.05,17.19-.1,34.39-.15,51.58-.03,8.68,1.7,12.09,4.11,14.24,0,.39,0,.79,0,1.18Z"/>
        <path class="cls-2" d="M101.3,81.02c2.28-2.54,4.04-6.19,4.06-14.72.05-16.92.1-33.83.16-50.75.03-8.53-1.71-12.03-3.97-14.38,0-.39,0-.78,0-1.17h42.07c12.59.01,17.67,4.36,17.64,14.71-.04,16.19-.09,32.38-.13,48.57-.03,10.36-5.14,14.94-17.75,15.75-14.04.89-28.06,1.95-42.08,3.16,0-.39,0-.78,0-1.17ZM141.14,20.36c.01-4.97-2.26-6.76-8.02-6.69-2.5.03-5,.06-7.5.09-.05,17.58-.11,35.16-.16,52.74,2.5-.15,5-.3,7.51-.44,5.76-.33,8.05-2.26,8.06-7.24.04-12.82.08-25.64.12-38.46Z"/>
        <path class="cls-2" d="M184.03,75.79c2.42-2.3,4.04-5.64,4.06-13.64.01-6.32.03-12.64.04-18.96-5.12-9.42-10.24-18.91-15.35-28.48-4.27-8.04-7.47-11.37-10.95-13.59,0-.37,0-.74,0-1.11h28.13c0,.36,0,.73,0,1.09-1.34,2.19-1.22,5.49,2.79,13.45,2.14,4.25,4.27,8.49,6.41,12.71,2.15-4.28,4.31-8.54,6.46-12.8,4.03-7.96,4.17-11.2,2.84-13.38,0-.36,0-.72,0-1.09h26.12c0,.36,0,.72,0,1.08-3.49,2.16-6.7,5.39-11,13.3-5.1,9.35-10.21,18.74-15.33,28.2-.01,6.34-.02,12.67-.03,19.01-.01,7.93,1.73,11.14,4.14,13.25,0,.36,0,.72,0,1.08-9.44.25-18.89.57-28.33.97,0-.37,0-.73,0-1.1Z"/>
        <path class="cls-2" d="M264.98,0h61.09c.01,6.95.03,13.9.04,20.85-.45,0-.89,0-1.34-.01-4.43-5.28-11.41-7.81-18.91-7.84-.09,0-.18,0-.27,0,.02,16.13.05,32.27.07,48.4.01,7.9,1.76,11.19,4.18,13.42,0,.36,0,.72,0,1.08-9.44-.25-18.89-.42-28.34-.52,0-.36,0-.72,0-1.08,2.42-2.13,4.03-5.34,4.02-13.21-.01-16.06-.03-32.11-.04-48.17-.09,0-.18,0-.27,0-7.51-.02-14.47,2.45-18.9,7.61-.45,0-.89,0-1.34,0,0-6.85,0-13.69,0-20.54Z"/>
        <path class="cls-2" d="M373.05,78.63c-7.11-.43-14.22-.82-21.33-1.16-12.61-.61-17.73-5.05-17.75-15.24-.03-15.89-.07-31.77-.1-47.66-.02-8-1.63-11.29-4.05-13.48,0-.36,0-.73,0-1.09h28.27c0,.37,0,.74,0,1.11-2.41,2.22-4.14,5.54-4.12,13.63.04,14.52.08,29.04.11,43.56.01,4.43,2.03,6.06,7.26,6.3.8.04,1.61.07,2.41.11,5.23.24,7.24-1.22,7.22-5.71-.04-14.69-.08-29.39-.13-44.08-.02-8.19-1.64-11.56-4.06-13.8,0-.37,0-.75,0-1.12h27.87c0,.38,0,.76,0,1.14-2.4,2.29-4.14,5.7-4.11,14.01.05,16.53.1,33.05.15,49.58.03,10.62-5.05,14.68-17.65,13.89Z"/>
        <path class="cls-2" d="M465.59,86.54c-8.07-.89-16.14-1.73-24.21-2.52-4.4-11.79-8.81-23.39-13.22-34.82-1.29-.07-2.59-.14-3.88-.21.02,5.93.04,11.86.05,17.78.03,8.59,1.78,12.27,4.19,14.85,0,.39,0,.79,0,1.18-9.42-.85-18.84-1.63-28.27-2.34,0-.38,0-.77,0-1.15,2.41-2.12,4-5.46,3.98-13.89-.05-16.69-.1-33.39-.16-50.08-.03-8.43-1.78-11.9-4.06-14.2,0-.38,0-.77,0-1.15h41.4c12.59-.02,17.7,4.76,17.72,16.19.02,6.21.03,12.43.05,18.64.02,9.21-3.31,13.92-11.07,15.02,2.52,6.4,5.03,12.86,7.54,19.38,3.5,9.21,6.59,13.24,9.93,16.07,0,.41,0,.82,0,1.24ZM439.06,21.07c-.01-4.91-2.16-6.74-7.52-6.83-2.46-.04-4.91-.08-7.37-.11.02,6.91.04,13.82.06,20.73,2.46.09,4.91.19,7.37.28,5.36.21,7.49-1.49,7.48-6.41,0-2.55-.01-5.11-.02-7.66Z"/>
        <path class="cls-2" d="M468.39,85.61c2.4-2.21,4-5.78,3.98-14.89-.04-18.04-.08-36.09-.11-54.13-.02-9.11-1.77-12.86-4.05-15.35,0-.41,0-.83,0-1.24h54.66c0,8.53,0,17.06,0,25.59-.45-.02-.89-.03-1.34-.05-4.42-6.59-10.04-9.74-20.88-9.98-2.77-.06-5.53-.12-8.3-.18.01,7.56.02,15.12.03,22.68,1.47.08,2.94.16,4.41.24,8.69.47,13.77,0,16.45-2.12.45.02.89.05,1.34.07,0,6.97,0,13.94,0,20.91-.45-.04-.89-.08-1.34-.11-2.67-2.47-7.75-3.66-16.44-4.31-1.47-.11-2.94-.22-4.41-.33,0,6.75.02,13.5.03,20.25.01,9.35,1.75,13.4,4.16,16.28,0,.43,0,.86,0,1.29-9.39-1.2-18.78-2.33-28.19-3.38,0-.41,0-.83,0-1.24Z"/>
      </g>
      <g>
        <path class="cls-3" d="M284.77,101.01c5.41,5.36,8.54-7.86,18.7-9.14-2.92,3.08-6.01,6.14-7.1,10.72,10.49-6.39,5.19-2.98,13.81-5.57,1.98-.59,4.09-1.05,5.56-1.15l-6.8,6.35,8.45-1.77-2.94,2.88c20.98,1.94,41.6,2.65,62.18,5.96l70.98,9.43c-2.62.56-128.39-9.36-128.39-9.36l-73.03-1.03c-6.83-16.68-1.58-21.82-9.03-40.3-2.61-6.48-6.42-11.64-11.6-16.56,14.83,5.02,21.45,20.95,24.87,35.29,5.36-10.91,12.72-25.03,25.74-27.94-7.33,6.87-12.55,14.32-15.51,23.65-1.54,4.84-3.06,9.37-2.84,14.44l4.74-8.34c3.33-5.85,7.82-11.37,14.43-13.81-5.56,7.58-8.9,15.57-9.57,24.64,3.66-5,6.12-10.92,12.17-13.81-2.19,4.63-4.25,8.47-4.45,13.03,7.29-7.63,15.07-15.26,26.13-16.18-6.79,5.04-13.26,10.4-16.48,18.55Z"/>
        <path class="cls-1" d="M189.89,96.82c5.81-.95,13.35,7.73,11.64,1.77,2.23,1.02,4.47,2.31,7.4,4.03-1.16-4.09-3.57-7.22-6.4-10.92,9.21,1.82,12.04,13.17,18.32,9.82-3.9-9.73-9.36-12.92-16.42-19.1,12.41,1.33,20.18,10.18,27.06,18.99-.57-17.6-3.78-19.81-11.89-33.36,14.11,8.42,21.06,25.21,24.29,40.21l-65.62,1.67-40.51,1.56-10.18.18c-2.5.04-80.7,6.51-83.27,6.3,19.19-3.46,114.37-11.48,134.11-13.07l13.34-1.07c2.89-.23,5.44,1.02,7.77,2.48.12-.51-.44-2.45-1.07-2.93l-8.57-6.55Z"/>
      </g>
    </g>
  </g>
</svg>